<svg width="120" height="33" viewBox="0 0 120 33" fill="none" xmlns="http://www.w3.org/2000/svg">
<g clip-path="url(#clip0_2752_32332)">
<g clip-path="url(#clip1_2752_32332)">
<g clip-path="url(#clip2_2752_32332)">
<path d="M116.76 7.21274C116.76 7.21274 116.74 7.25281 116.72 7.25281C116.72 7.25281 116.7 7.25281 116.68 7.25281C116.66 7.25281 116.64 7.25281 116.62 7.23277C116.6 7.23277 116.56 7.1927 116.54 7.17266C116.5 7.17266 116.46 7.13258 116.42 7.11255C116.38 7.11255 116.32 7.09251 116.26 7.09251C116.2 7.09251 116.14 7.09251 116.1 7.11255C116.06 7.11255 116.02 7.15262 115.98 7.17266C115.94 7.1927 115.92 7.23277 115.92 7.27285C115.92 7.31293 115.9 7.353 115.9 7.39308C115.9 7.43315 115.9 7.49327 115.94 7.53334C115.96 7.57342 116 7.59346 116.06 7.63353C116.1 7.65357 116.16 7.67361 116.22 7.69365C116.28 7.69365 116.34 7.73373 116.4 7.75376C116.46 7.7738 116.52 7.79384 116.58 7.83392C116.64 7.87399 116.7 7.89403 116.74 7.93411C116.78 7.97418 116.82 8.0343 116.86 8.09441C116.88 8.15453 116.9 8.23468 116.9 8.31483C116.9 8.39498 116.9 8.49517 116.86 8.59536C116.82 8.69555 116.78 8.75567 116.72 8.81578C116.66 8.8759 116.58 8.93601 116.48 8.95605C116.38 8.99612 116.28 9.01616 116.16 9.01616C116.04 9.01616 116.02 9.01616 115.96 8.99612C115.9 8.99612 115.84 8.95605 115.78 8.93601C115.72 8.91597 115.66 8.8759 115.62 8.85586C115.56 8.81578 115.52 8.7757 115.48 8.73563L115.58 8.57532C115.58 8.57532 115.6 8.55529 115.62 8.53525C115.64 8.51521 115.64 8.53525 115.66 8.53525C115.68 8.53525 115.7 8.53525 115.74 8.57532C115.76 8.59536 115.8 8.6154 115.84 8.65548C115.88 8.67551 115.92 8.69555 115.98 8.73563C116.04 8.75567 116.1 8.7757 116.18 8.7757C116.3 8.7757 116.4 8.73563 116.48 8.67551C116.54 8.6154 116.58 8.53525 116.58 8.41502C116.58 8.29479 116.58 8.29479 116.54 8.27475C116.52 8.23468 116.48 8.1946 116.42 8.17456C116.38 8.15452 116.32 8.13449 116.26 8.11445C116.2 8.09441 116.14 8.07437 116.08 8.05433C116.02 8.0343 115.96 8.01426 115.9 7.97418C115.84 7.95414 115.78 7.91407 115.74 7.87399C115.7 7.83392 115.66 7.7738 115.62 7.71369C115.6 7.65357 115.58 7.57342 115.58 7.47323C115.58 7.37304 115.58 7.31293 115.62 7.25281C115.66 7.17266 115.7 7.11255 115.76 7.05243C115.82 6.99232 115.9 6.95224 115.98 6.91216C116.06 6.87209 116.16 6.85205 116.28 6.85205C116.4 6.85205 116.52 6.85205 116.62 6.91216C116.72 6.95224 116.82 7.01235 116.88 7.07247L116.8 7.23277L116.76 7.21274Z" fill="#1A332A"/>
<path d="M119.52 6.83217V8.99628H119.22V7.51346C119.22 7.49342 119.22 7.45335 119.22 7.43331C119.22 7.41327 119.22 7.37319 119.22 7.35316L118.52 8.63559C118.5 8.69571 118.46 8.71574 118.4 8.71574H118.36C118.3 8.71574 118.26 8.69571 118.24 8.63559L117.54 7.35316C117.54 7.37319 117.54 7.41327 117.54 7.43331C117.54 7.45335 117.54 7.49342 117.54 7.51346V8.99628H117.24V6.83217H117.5C117.54 6.83217 117.56 6.83217 117.58 6.83217C117.6 6.83217 117.62 6.8522 117.62 6.89228L118.32 8.15468C118.32 8.17472 118.34 8.21479 118.36 8.23483C118.36 8.27491 118.38 8.29495 118.4 8.33502C118.4 8.29495 118.42 8.27491 118.44 8.23483C118.44 8.19475 118.46 8.17472 118.48 8.13464L119.16 6.87224C119.16 6.8522 119.18 6.83217 119.2 6.81213C119.22 6.79209 119.24 6.81213 119.28 6.81213H119.54L119.52 6.83217Z" fill="#1A332A"/>
<path d="M3.61977 8.47632C4.13977 7.95533 4.69977 7.53454 5.33977 7.19389C5.95976 6.87328 6.67976 6.71298 7.49976 6.71298C8.31976 6.71298 8.77976 6.8332 9.27976 7.05362C9.79976 7.27404 10.2198 7.59465 10.5598 7.99541C10.8998 8.39617 11.1598 8.89712 11.3398 9.47823C11.5198 10.0593 11.5998 10.6805 11.5998 11.3818V19.2167H9.21976V11.3818C9.21976 10.5002 9.01976 9.81888 8.61976 9.31792C8.21976 8.83701 7.59976 8.57651 6.75976 8.57651C5.91976 8.57651 5.57976 8.71678 5.05976 8.99731C4.53976 9.27785 4.03976 9.67861 3.57977 10.1595V19.1967H1.25977V1.34277H3.61977V8.47632Z" fill="#00A870"/>
<path d="M23.0793 17.4733C22.7793 17.814 22.4593 18.1145 22.0793 18.355C21.6993 18.5954 21.2993 18.7958 20.8593 18.9561C20.4393 19.1164 19.9993 19.2166 19.5393 19.2968C19.0793 19.3769 18.6393 19.397 18.1993 19.397C17.3593 19.397 16.5593 19.2567 15.8393 18.9762C15.1193 18.6956 14.4993 18.2748 13.9593 17.7138C13.4393 17.1527 13.0193 16.4714 12.7193 15.6499C12.4193 14.8283 12.2793 13.8865 12.2793 12.8245C12.2793 11.7625 12.4193 11.1613 12.6793 10.44C12.9393 9.71858 13.3193 9.05733 13.8193 8.5163C14.3193 7.97527 14.9193 7.53443 15.6393 7.21382C16.3593 6.89322 17.1593 6.73291 18.0593 6.73291C18.9593 6.73291 19.4993 6.85314 20.1393 7.0936C20.7793 7.33405 21.3193 7.69474 21.7793 8.17565C22.2393 8.63653 22.5993 9.21763 22.8593 9.91896C23.1193 10.6003 23.2593 11.3817 23.2593 12.2634C23.2593 13.1451 23.2193 12.8646 23.1393 13.0048C23.0593 13.1251 22.9193 13.1852 22.6993 13.1852H14.6393C14.6593 13.9266 14.7593 14.5678 14.9593 15.1088C15.1393 15.6499 15.3993 16.1107 15.7193 16.4714C16.0393 16.8321 16.4393 17.1126 16.8793 17.293C17.3393 17.4733 17.8393 17.5535 18.3993 17.5535C18.9593 17.5535 19.3793 17.4934 19.7593 17.3731C20.1393 17.2529 20.4793 17.1126 20.7593 16.9724C21.0393 16.8321 21.2793 16.6918 21.4593 16.5716C21.6393 16.4514 21.8193 16.3913 21.9593 16.3913C22.0993 16.3913 22.2993 16.4714 22.3993 16.6117L23.0793 17.4934V17.4733ZM21.1193 11.7024C21.1193 11.2415 21.0593 10.8006 20.9193 10.3999C20.7793 9.99912 20.5993 9.65847 20.3393 9.37794C20.0793 9.07736 19.7593 8.85695 19.3993 8.69664C19.0193 8.53634 18.5993 8.45618 18.1193 8.45618C17.1193 8.45618 16.3393 8.73672 15.7793 9.31782C15.2193 9.89893 14.8593 10.6804 14.6993 11.7024H21.1393H21.1193Z" fill="#00A870"/>
<path d="M23.66 8.63656C24.34 7.97531 25.08 7.49439 25.9 7.17378C26.7 6.85318 27.58 6.69287 28.54 6.69287C29.5 6.69287 29.86 6.8131 30.4 7.03352C30.94 7.25394 31.4 7.59458 31.76 7.99535C32.14 8.41614 32.42 8.89706 32.6 9.47816C32.78 10.0593 32.88 10.6804 32.88 11.3818V19.2367H31.82C31.58 19.2367 31.4 19.1966 31.28 19.1165C31.16 19.0363 31.06 18.8961 30.98 18.6957L30.72 17.6136C30.4 17.9142 30.1 18.1546 29.78 18.3751C29.48 18.5955 29.16 18.7959 28.82 18.9361C28.48 19.0964 28.12 19.2167 27.74 19.2968C27.36 19.377 26.94 19.417 26.48 19.417C26.02 19.417 25.54 19.3569 25.12 19.2167C24.7 19.0764 24.32 18.876 24.02 18.5955C23.7 18.3149 23.46 17.9743 23.28 17.5735C23.1 17.1527 23 16.6718 23 16.1308C23 15.5898 23.14 15.189 23.4 14.7281C23.66 14.2873 24.08 13.8865 24.68 13.5259C25.28 13.1652 26.04 12.8846 27 12.6442C27.96 12.4238 29.14 12.2835 30.52 12.2635V11.3617C30.52 10.44 30.32 9.73866 29.92 9.27778C29.52 8.81691 28.94 8.59649 28.18 8.59649C27.42 8.59649 27.24 8.6566 26.88 8.79687C26.52 8.9171 26.22 9.0774 25.98 9.21767C25.74 9.35793 25.5 9.51824 25.32 9.63847C25.14 9.75869 24.94 9.83885 24.74 9.83885C24.54 9.83885 24.44 9.79877 24.32 9.69858C24.2 9.61843 24.1 9.4982 24.04 9.37797L23.62 8.61653L23.66 8.63656ZM30.58 13.7663C29.62 13.8064 28.8 13.8665 28.14 13.9867C27.48 14.107 26.92 14.2673 26.5 14.4476C26.08 14.648 25.78 14.8684 25.6 15.1289C25.42 15.3894 25.32 15.69 25.32 16.0106C25.32 16.3312 25.38 16.5917 25.48 16.8121C25.58 17.0325 25.72 17.2129 25.9 17.3531C26.08 17.4934 26.28 17.5936 26.52 17.6537C26.76 17.7138 27 17.7539 27.28 17.7539C27.56 17.7539 27.98 17.7138 28.28 17.6537C28.58 17.5936 28.86 17.4733 29.14 17.3531C29.4 17.2129 29.66 17.0526 29.9 16.8722C30.14 16.6718 30.38 16.4514 30.62 16.211V13.7863L30.58 13.7663Z" fill="#00A870"/>
<path d="M36.6808 1.34277V19.2368H34.3008V1.34277H36.6808Z" fill="#00A870"/>
<path d="M42.0801 19.4371C41.0801 19.4371 40.3201 19.1566 39.7801 18.5955C39.2401 18.0344 38.9801 17.2329 38.9801 16.211V8.83695H37.5601C37.4201 8.83695 37.3001 8.79688 37.2201 8.71673C37.1201 8.63657 37.0801 8.49631 37.0801 8.336V7.37418L39.0801 7.09364L39.6201 3.42668C39.6601 3.28641 39.7201 3.18622 39.8001 3.10607C39.9001 3.02592 40.0201 2.98584 40.1601 2.98584H41.3601V7.11368H44.8401V8.83695H41.3601V16.0507C41.3601 16.5316 41.4801 16.8923 41.7201 17.1327C41.9601 17.3732 42.2601 17.4934 42.6401 17.4934C43.0201 17.4934 43.0401 17.4734 43.2001 17.4132C43.3601 17.3531 43.5001 17.293 43.6001 17.2329C43.7201 17.1728 43.8001 17.0926 43.9001 17.0526C43.9801 16.9924 44.0601 16.9724 44.1201 16.9724C44.1801 16.9724 44.2601 16.9724 44.3001 17.0325C44.3401 17.0726 44.4001 17.1327 44.4401 17.2129L45.1401 18.355C44.7601 18.7157 44.3001 18.9762 43.7601 19.1766C43.2201 19.377 42.6801 19.4772 42.1001 19.4772L42.0801 19.4371Z" fill="#00A870"/>
<path d="M47.7203 8.47632C48.2403 7.95533 48.8003 7.53454 49.4403 7.19389C50.0603 6.87328 50.7803 6.71298 51.6003 6.71298C52.4203 6.71298 52.8803 6.8332 53.3803 7.05362C53.9003 7.27404 54.3203 7.59465 54.6603 7.99541C55.0003 8.39617 55.2603 8.89712 55.4403 9.47823C55.6203 10.0593 55.7003 10.6805 55.7003 11.3818V19.2167H53.3203V11.3818C53.3203 10.5002 53.1203 9.81888 52.7203 9.31792C52.3203 8.83701 51.7003 8.57651 50.8603 8.57651C50.0203 8.57651 49.6803 8.71678 49.1603 8.99731C48.6403 9.27785 48.1403 9.67861 47.6803 10.1595V19.1967H45.3203V1.34277H47.6803V8.47632H47.7203Z" fill="#00A870"/>
<path d="M67.5398 6.91359L60.7198 22.8038C60.6398 22.9841 60.5598 23.1244 60.4198 23.2246C60.2998 23.3248 60.1198 23.3648 59.8798 23.3648H58.1198L60.3798 18.4555L55.3398 6.91359H57.3998C57.5998 6.91359 57.7598 6.95367 57.8798 7.05386C57.9998 7.15405 58.0798 7.25424 58.1198 7.37447L61.2398 14.7685C61.2998 14.9489 61.3598 15.1492 61.4198 15.3296C61.4798 15.5099 61.5398 15.7103 61.5798 15.8906C61.6398 15.6903 61.6998 15.5099 61.7598 15.3095C61.8198 15.1292 61.8998 14.9288 61.9598 14.7485L64.9798 7.37447C65.0398 7.2342 65.1198 7.13401 65.2398 7.03382C65.3598 6.95367 65.4998 6.89355 65.6598 6.89355H67.5398V6.91359Z" fill="#00A870"/>
<path d="M70.3591 8.7573C70.6191 8.45673 70.8991 8.1762 71.1791 7.9157C71.4791 7.65521 71.7991 7.43479 72.1191 7.25444C72.4591 7.0741 72.8191 6.93383 73.1991 6.83364C73.5791 6.73345 73.9991 6.67334 74.4191 6.67334C75.1191 6.67334 75.7591 6.81361 76.3191 7.09414C76.8791 7.37467 77.3791 7.77543 77.7791 8.29642C78.1791 8.83745 78.4991 9.49871 78.7191 10.2802C78.9391 11.0617 79.0591 11.9634 79.0591 12.9853C79.0591 14.0073 78.9391 14.7487 78.6991 15.5302C78.4591 16.3117 78.0991 16.9929 77.6391 17.554C77.1791 18.1351 76.6191 18.576 75.9791 18.8966C75.3191 19.2172 74.5791 19.3975 73.7591 19.3975C72.9391 19.3975 72.3991 19.2773 71.8791 19.0368C71.3591 18.7964 70.8791 18.4557 70.4791 18.0149V23.3651H68.1191V6.9138H69.5391C69.8791 6.9138 70.0791 7.0741 70.1591 7.39471L70.3591 8.7573ZM70.4791 16.2115C70.8591 16.7124 71.2791 17.0731 71.7391 17.2735C72.1791 17.4739 72.6791 17.574 73.2391 17.574C74.3191 17.574 75.1591 17.1933 75.7591 16.4118C76.3591 15.6304 76.6391 14.4882 76.6391 13.0054C76.6391 11.5226 76.5791 11.5626 76.4391 11.0016C76.2991 10.4405 76.1191 9.99966 75.8591 9.63897C75.5991 9.27829 75.2991 9.03783 74.9191 8.85749C74.5391 8.69719 74.1191 8.61703 73.6591 8.61703C72.9791 8.61703 72.3791 8.77734 71.8791 9.07791C71.3791 9.37848 70.8991 9.81932 70.4791 10.3804V16.2115Z" fill="#1A332A"/>
<path d="M79.6209 8.63656C80.3009 7.97531 81.0409 7.49439 81.8609 7.17378C82.6609 6.85318 83.5409 6.69287 84.5009 6.69287C85.4609 6.69287 85.8209 6.8131 86.3609 7.03352C86.9009 7.25394 87.3609 7.59458 87.7209 7.99535C88.1009 8.41614 88.3809 8.89706 88.5609 9.47816C88.7409 10.0593 88.8409 10.6804 88.8409 11.3818V19.2367H87.7809C87.5409 19.2367 87.3609 19.1966 87.2409 19.1165C87.1209 19.0363 87.0209 18.8961 86.9409 18.6957L86.6809 17.6136C86.3609 17.9142 86.0609 18.1546 85.7409 18.3751C85.4409 18.5955 85.1209 18.7959 84.7809 18.9361C84.4409 19.0964 84.0809 19.2167 83.7009 19.2968C83.3209 19.377 82.9009 19.417 82.4409 19.417C81.9809 19.417 81.5009 19.3569 81.0809 19.2167C80.6609 19.0764 80.2809 18.876 79.9809 18.5955C79.6609 18.3149 79.4209 17.9743 79.2409 17.5735C79.0609 17.1527 78.9609 16.6718 78.9609 16.1308C78.9609 15.5898 79.1009 15.189 79.3609 14.7281C79.6209 14.2873 80.0409 13.8865 80.6409 13.5259C81.2409 13.1652 82.0009 12.8846 82.9609 12.6442C83.9209 12.4238 85.1009 12.2835 86.4809 12.2635V11.3617C86.4809 10.44 86.2809 9.73866 85.8809 9.27778C85.4809 8.81691 84.9009 8.59649 84.1409 8.59649C83.3809 8.59649 83.2009 8.6566 82.8409 8.79687C82.4809 8.9171 82.1809 9.0774 81.9409 9.21767C81.7009 9.35793 81.4609 9.51824 81.2809 9.63847C81.1009 9.75869 80.9009 9.83885 80.7009 9.83885C80.5009 9.83885 80.4009 9.79877 80.2809 9.69858C80.1609 9.61843 80.0609 9.4982 80.0009 9.37797L79.5809 8.61653L79.6209 8.63656ZM86.5409 13.7663C85.5809 13.8064 84.7609 13.8665 84.1009 13.9867C83.4409 14.107 82.8809 14.2673 82.4609 14.4476C82.0409 14.648 81.7409 14.8684 81.5609 15.1289C81.3809 15.3894 81.2809 15.69 81.2809 16.0106C81.2809 16.3312 81.3409 16.5917 81.4409 16.8121C81.5409 17.0325 81.6809 17.2129 81.8609 17.3531C82.0409 17.4934 82.2409 17.5936 82.4809 17.6537C82.7209 17.7138 82.9609 17.7539 83.2409 17.7539C83.5209 17.7539 83.9409 17.7138 84.2409 17.6537C84.5409 17.5735 84.8209 17.4733 85.1009 17.3531C85.3609 17.2129 85.6209 17.0526 85.8609 16.8722C86.1009 16.6718 86.3409 16.4514 86.5809 16.211V13.7863L86.5409 13.7663Z" fill="#1A332A"/>
<path d="M107.3 6.91361L103.34 19.237H101.46C101.24 19.237 101.08 19.0968 101 18.7962L98.4199 10.7609C98.3599 10.5605 98.2999 10.3602 98.2599 10.1598C98.2199 9.9594 98.1599 9.75902 98.1199 9.55864C98.0399 9.97944 97.9399 10.3802 97.8199 10.781L95.1999 18.7761C95.1199 19.0767 94.9399 19.217 94.6799 19.217H92.8799L88.9199 6.89357H90.7799C90.9599 6.89357 91.1199 6.93365 91.2399 7.03384C91.3599 7.11399 91.4399 7.23422 91.4799 7.37449L93.6999 14.9489C93.7799 15.2494 93.8399 15.55 93.8999 15.8506C93.9599 16.1512 93.9999 16.4317 94.0599 16.7323C94.1399 16.4317 94.2199 16.1512 94.2999 15.8506C94.3799 15.55 94.4799 15.2695 94.5599 14.9489L97.0199 7.33441C97.0599 7.19414 97.1399 7.09395 97.2599 6.99376C97.3799 6.91361 97.4999 6.87354 97.6799 6.87354H98.6999C98.8799 6.87354 99.0199 6.91361 99.1399 6.99376C99.2599 7.07392 99.3399 7.19414 99.3799 7.33441L101.78 14.9489C101.86 15.2494 101.96 15.55 102.04 15.8506C102.12 16.1512 102.2 16.4517 102.26 16.7323C102.3 16.4317 102.36 16.1512 102.42 15.8506C102.48 15.55 102.56 15.2494 102.64 14.9288L104.9 7.35445C104.94 7.21418 105.02 7.11399 105.14 7.0138C105.26 6.93365 105.4 6.87354 105.56 6.87354H107.34L107.3 6.91361Z" fill="#1A332A"/>
<path d="M114.619 9.03736C114.559 9.13755 114.479 9.2177 114.419 9.25778C114.339 9.29786 114.259 9.31789 114.139 9.31789C114.019 9.31789 113.859 9.27782 113.719 9.17763C113.559 9.09748 113.379 8.99729 113.159 8.87706C112.939 8.77687 112.679 8.67668 112.379 8.57649C112.079 8.49633 111.719 8.43622 111.319 8.43622C110.919 8.43622 110.679 8.4763 110.399 8.55645C110.119 8.6366 109.879 8.75683 109.699 8.91713C109.499 9.0574 109.359 9.23774 109.259 9.45816C109.159 9.65854 109.099 9.87896 109.099 10.1194C109.099 10.3599 109.199 10.6805 109.379 10.8809C109.559 11.0812 109.799 11.2616 110.099 11.4019C110.399 11.5421 110.719 11.6824 111.099 11.8026C111.479 11.9228 111.859 12.0431 112.239 12.1633C112.639 12.2835 113.019 12.4438 113.379 12.6041C113.759 12.7644 114.079 12.9849 114.379 13.2253C114.679 13.4658 114.919 13.7663 115.099 14.107C115.279 14.4476 115.379 14.8885 115.379 15.3894C115.379 15.8904 115.279 16.4915 115.079 16.9925C114.879 17.4734 114.579 17.8942 114.179 18.2549C113.779 18.6156 113.279 18.8961 112.699 19.0965C112.119 19.2969 111.439 19.397 110.679 19.397C109.919 19.397 109.059 19.2568 108.339 18.9762C107.619 18.6957 107.019 18.335 106.539 17.8942L107.099 16.9925C107.159 16.8722 107.239 16.7921 107.339 16.732C107.439 16.6719 107.559 16.6318 107.719 16.6318C107.879 16.6318 108.039 16.6919 108.199 16.7921C108.359 16.8923 108.559 17.0325 108.779 17.1528C108.999 17.293 109.279 17.4133 109.599 17.5135C109.919 17.6137 110.319 17.6738 110.799 17.6738C111.279 17.6738 111.559 17.6137 111.859 17.5135C112.159 17.4133 112.399 17.273 112.599 17.0927C112.799 16.9123 112.939 16.7119 113.039 16.4915C113.139 16.2711 113.179 16.0306 113.179 15.7702C113.179 15.5097 113.079 15.169 112.899 14.9686C112.719 14.7482 112.479 14.5679 112.179 14.4076C111.879 14.2473 111.539 14.127 111.159 14.0068C110.779 13.8866 110.399 13.7663 109.999 13.6461C109.599 13.5259 109.219 13.3656 108.839 13.2053C108.459 13.045 108.119 12.8246 107.819 12.5641C107.519 12.3036 107.279 11.983 107.099 11.6223C106.919 11.2415 106.819 10.8007 106.819 10.2597C106.819 9.71866 106.919 9.31789 107.119 8.8971C107.319 8.45626 107.599 8.07553 107.979 7.75493C108.359 7.41428 108.819 7.15378 109.379 6.9534C109.939 6.75302 110.559 6.65283 111.279 6.65283C111.999 6.65283 112.839 6.77306 113.479 7.03355C114.139 7.29405 114.699 7.65474 115.159 8.09557L114.639 8.95721L114.619 9.03736Z" fill="#1A332A"/>
<path d="M50.8392 27.3932C51.0592 27.1728 51.3192 27.0124 51.5792 26.9123C51.8392 26.8121 52.1392 26.752 52.4592 26.752C52.7792 26.752 52.8992 26.792 53.0792 26.8722C53.2592 26.9523 53.3992 27.0525 53.5392 27.1928C53.6592 27.3331 53.7592 27.4934 53.8192 27.6737C53.8792 27.854 53.9192 28.0745 53.9192 28.2949V30.8998H53.5792C53.4992 30.8998 53.4392 30.8998 53.3992 30.8598C53.3592 30.8397 53.3192 30.7796 53.2992 30.7195L53.2192 30.3588C53.1192 30.459 53.0192 30.5391 52.9192 30.6193C52.8192 30.6995 52.7192 30.7596 52.5992 30.7996C52.4792 30.8598 52.3792 30.8998 52.2392 30.9199C52.1192 30.9399 51.9792 30.9599 51.8192 30.9599C51.6592 30.9599 51.5192 30.9399 51.3792 30.8998C51.2392 30.8598 51.1192 30.7796 51.0192 30.6995C50.9192 30.6193 50.8392 30.4991 50.7792 30.3588C50.7192 30.2185 50.6992 30.0582 50.6992 29.8779C50.6992 29.6976 50.7392 29.5573 50.8192 29.417C50.8992 29.2768 51.0392 29.1365 51.2392 29.0163C51.4392 28.896 51.6992 28.7958 51.9992 28.7357C52.2992 28.6756 52.6992 28.6155 53.1592 28.6155V28.3149C53.1592 28.0144 53.0992 27.7739 52.9592 27.6336C52.8192 27.4733 52.6392 27.4132 52.3792 27.4132C52.1192 27.4132 52.0592 27.4332 51.9592 27.4733C51.8392 27.5134 51.7392 27.5735 51.6592 27.6136C51.5792 27.6537 51.4992 27.7138 51.4392 27.7539C51.3792 27.7939 51.3192 27.814 51.2392 27.814C51.1592 27.814 51.1392 27.814 51.0992 27.7739C51.0592 27.7539 51.0192 27.7138 50.9992 27.6737L50.8592 27.4132L50.8392 27.3932ZM53.1392 29.0964C52.8192 29.0964 52.5592 29.1365 52.3392 29.1766C52.1192 29.2166 51.9392 29.2767 51.7992 29.3369C51.6592 29.397 51.5592 29.4771 51.4992 29.5573C51.4392 29.6374 51.3992 29.7376 51.3992 29.8579C51.3992 29.9781 51.3992 30.0382 51.4392 30.1183C51.4792 30.1985 51.5192 30.2586 51.5792 30.2987C51.6392 30.3388 51.6992 30.3788 51.7792 30.3989C51.8592 30.4189 51.9392 30.439 52.0392 30.439C52.1392 30.439 52.2592 30.439 52.3592 30.3989C52.4592 30.3788 52.5592 30.3388 52.6392 30.2987C52.7192 30.2586 52.8192 30.1985 52.8992 30.1384C52.9792 30.0783 53.0592 29.9981 53.1392 29.918V29.1164V29.0964Z" fill="#1A332A"/>
<path d="M61.1803 29.6776C61.2203 29.6776 61.2603 29.6776 61.3003 29.7377L61.6403 30.0984C61.4003 30.3789 61.1203 30.5993 60.7803 30.7396C60.4403 30.8999 60.0403 30.96 59.5603 30.96C59.0803 30.96 58.7603 30.8798 58.4403 30.7396C58.1003 30.5993 57.8203 30.3989 57.5803 30.1384C57.3403 29.8779 57.1603 29.5774 57.0203 29.2167C56.8803 28.856 56.8203 28.4552 56.8203 28.0344C56.8203 27.6136 56.8803 27.2129 57.0203 26.8522C57.1603 26.4915 57.3403 26.1909 57.6003 25.9304C57.8403 25.67 58.1403 25.4696 58.4803 25.3293C58.8203 25.189 59.2003 25.1089 59.6203 25.1089C60.0403 25.1089 60.4003 25.169 60.7003 25.3093C61.0203 25.4495 61.3003 25.6299 61.5203 25.8503L61.2403 26.2511C61.2403 26.2711 61.2003 26.3112 61.1803 26.3312C61.1603 26.3312 61.1203 26.3512 61.0603 26.3512C61.0003 26.3512 60.9603 26.3312 60.8803 26.2711C60.8203 26.211 60.7203 26.1709 60.6203 26.1108C60.5003 26.0507 60.3803 25.9906 60.2003 25.9304C60.0403 25.8703 59.8403 25.8503 59.6003 25.8503C59.3603 25.8503 59.0603 25.8904 58.8203 26.0106C58.5803 26.1108 58.3803 26.2511 58.2003 26.4514C58.0203 26.6318 57.9003 26.8722 57.8003 27.1528C57.7003 27.4333 57.6603 27.7339 57.6603 28.0745C57.6603 28.4152 57.7003 28.7358 57.8003 29.0163C57.9003 29.2968 58.0403 29.5173 58.2003 29.7176C58.3803 29.898 58.5803 30.0583 58.8203 30.1585C59.0603 30.2587 59.3003 30.2987 59.5803 30.2987C59.8603 30.2987 59.9003 30.2987 60.0203 30.2587C60.1603 30.2587 60.2803 30.2186 60.3803 30.1585C60.5003 30.1184 60.6003 30.0583 60.7003 29.9982C60.8003 29.9381 60.9003 29.8579 61.0003 29.7778C61.0203 29.7778 61.0403 29.7377 61.0603 29.7377C61.0803 29.7377 61.1003 29.7377 61.1403 29.7377L61.1803 29.6776Z" fill="#1A332A"/>
<path d="M63.1198 27.3533C63.2998 27.1729 63.4798 27.0327 63.6798 26.9325C63.8798 26.8323 64.1198 26.7722 64.3998 26.7722C64.6798 26.7722 64.8198 26.8122 64.9998 26.8924C65.1798 26.9725 65.3198 27.0727 65.4198 27.213C65.5398 27.3533 65.6198 27.5136 65.6798 27.6939C65.7398 27.8743 65.7598 28.0947 65.7598 28.3151V30.9H64.9798V28.3151C64.9798 28.0145 64.9198 27.7941 64.7798 27.6338C64.6398 27.4735 64.4398 27.3933 64.1598 27.3933C63.8798 27.3933 63.7798 27.4334 63.5998 27.5336C63.4198 27.6338 63.2598 27.754 63.1198 27.9143V30.9H62.3398V24.9888H63.1198V27.3533Z" fill="#1A332A"/>
<path d="M70.2203 26.8325V30.9003H69.7603C69.6603 30.9003 69.5803 30.8401 69.5603 30.74L69.5003 30.3392C69.4203 30.4394 69.3203 30.5195 69.2203 30.5997C69.1203 30.6798 69.0203 30.74 68.9203 30.8001C68.8203 30.8602 68.7003 30.9003 68.5803 30.9203C68.4603 30.9403 68.3203 30.9604 68.1803 30.9604C67.9603 30.9604 67.7603 30.9203 67.5803 30.8401C67.4003 30.76 67.2603 30.6598 67.1603 30.5195C67.0403 30.3793 66.9603 30.219 66.9003 30.0386C66.8403 29.8583 66.8203 29.6379 66.8203 29.4174V26.8325H67.6003V29.4174C67.6003 29.718 67.6603 29.9384 67.8003 30.0987C67.9403 30.259 68.1403 30.3392 68.4203 30.3392C68.7003 30.3392 68.8003 30.2991 68.9803 30.1989C69.1603 30.0987 69.3203 29.9785 69.4603 29.7982V26.8125H70.2403L70.2203 26.8325Z" fill="#1A332A"/>
<path d="M72.1008 27.3933C72.2608 27.213 72.4608 27.0527 72.6808 26.9325C72.9008 26.8122 73.1408 26.7521 73.4008 26.7521C73.6608 26.7521 73.8608 26.7922 74.0408 26.8924C74.2208 26.9926 74.4008 27.1128 74.5208 27.2931C74.6608 27.4735 74.7608 27.6739 74.8208 27.9143C74.9008 28.1548 74.9208 28.4353 74.9208 28.7559C74.9208 29.0765 74.8808 29.3771 74.8008 29.6576C74.7208 29.9181 74.6008 30.1586 74.4608 30.359C74.3208 30.5594 74.1208 30.6996 73.9008 30.7998C73.6808 30.9 73.4408 30.9601 73.1808 30.9601C72.9208 30.9601 72.9208 30.9601 72.8208 30.92C72.7208 30.9 72.6008 30.8599 72.5208 30.8198C72.4408 30.7798 72.3408 30.7197 72.2608 30.6395C72.1808 30.5794 72.1008 30.4992 72.0408 30.399L72.0008 30.7397C71.9808 30.8399 71.9208 30.9 71.8008 30.9H71.3008V24.9888H72.0808V27.3933H72.1008ZM72.1008 29.8981C72.2208 30.0584 72.3608 30.1786 72.5208 30.2588C72.6608 30.3189 72.8408 30.359 73.0008 30.359C73.3608 30.359 73.6408 30.2387 73.8408 29.9782C74.0408 29.7178 74.1408 29.337 74.1408 28.796C74.1408 28.255 74.0608 27.9544 73.8808 27.734C73.7008 27.5136 73.4608 27.3933 73.1408 27.3933C72.8208 27.3933 72.7208 27.4535 72.5608 27.5536C72.4008 27.6538 72.2408 27.7941 72.1008 27.9945V29.9181V29.8981Z" fill="#1A332A"/>
<path d="M76.6203 27.3933C76.7803 27.213 76.9803 27.0527 77.2003 26.9325C77.4203 26.8122 77.6603 26.7521 77.9203 26.7521C78.1803 26.7521 78.3803 26.7922 78.5603 26.8924C78.7403 26.9926 78.9203 27.1128 79.0403 27.2931C79.1803 27.4735 79.2803 27.6739 79.3403 27.9143C79.4203 28.1548 79.4403 28.4353 79.4403 28.7559C79.4403 29.0765 79.4003 29.3771 79.3203 29.6576C79.2403 29.9181 79.1203 30.1586 78.9803 30.359C78.8403 30.5594 78.6403 30.6996 78.4203 30.7998C78.2003 30.9 77.9603 30.9601 77.7003 30.9601C77.4403 30.9601 77.4403 30.9601 77.3403 30.92C77.2403 30.9 77.1203 30.8599 77.0403 30.8198C76.9603 30.7798 76.8603 30.7197 76.7803 30.6395C76.7003 30.5594 76.6203 30.4992 76.5603 30.399L76.5203 30.7397C76.5003 30.8399 76.4403 30.9 76.3203 30.9H75.8203V24.9888H76.6003V27.3933H76.6203ZM76.6203 29.8981C76.7403 30.0584 76.8803 30.1786 77.0403 30.2588C77.1803 30.3189 77.3603 30.359 77.5203 30.359C77.8803 30.359 78.1603 30.2387 78.3603 29.9782C78.5603 29.7178 78.6603 29.337 78.6603 28.796C78.6603 28.255 78.5803 27.9544 78.4003 27.734C78.2203 27.5136 77.9803 27.3933 77.6603 27.3933C77.3403 27.3933 77.2403 27.4535 77.0803 27.5536C76.9203 27.6538 76.7603 27.7941 76.6203 27.9945V29.9181V29.8981Z" fill="#1A332A"/>
<path d="M86.5592 29.6776C86.5992 29.6776 86.6392 29.6776 86.6792 29.7377L87.0192 30.0984C86.7792 30.3789 86.4992 30.5993 86.1592 30.7396C85.8192 30.8999 85.4192 30.96 84.9392 30.96C84.4592 30.96 84.1392 30.8798 83.8192 30.7396C83.4792 30.5993 83.1992 30.3989 82.9592 30.1384C82.7192 29.8779 82.5392 29.5774 82.3992 29.2167C82.2592 28.856 82.1992 28.4552 82.1992 28.0344C82.1992 27.6136 82.2592 27.2129 82.3992 26.8522C82.5392 26.4915 82.7392 26.1909 82.9792 25.9304C83.2192 25.67 83.5192 25.4696 83.8792 25.3293C84.2392 25.189 84.5992 25.1089 85.0192 25.1089C85.4392 25.1089 85.7992 25.169 86.0992 25.3093C86.3992 25.4495 86.6992 25.6299 86.9192 25.8503L86.6392 26.2511C86.6392 26.2711 86.5992 26.3112 86.5792 26.3312C86.5592 26.3312 86.5192 26.3512 86.4592 26.3512C86.3992 26.3512 86.3592 26.3312 86.2792 26.2711C86.2192 26.211 86.1192 26.1709 86.0192 26.1108C85.8992 26.0507 85.7792 25.9906 85.6192 25.9304C85.4592 25.8703 85.2592 25.8503 85.0192 25.8503C84.7792 25.8503 84.4792 25.8904 84.2392 26.0106C83.9992 26.1108 83.7992 26.2511 83.6192 26.4514C83.4392 26.6318 83.3192 26.8722 83.2192 27.1528C83.1192 27.4333 83.0792 27.7339 83.0792 28.0745C83.0792 28.4152 83.1192 28.7358 83.2192 29.0163C83.3192 29.2968 83.4592 29.5173 83.6192 29.7176C83.7992 29.898 83.9992 30.0583 84.2392 30.1585C84.4792 30.2587 84.7192 30.2987 84.9992 30.2987C85.2792 30.2987 85.3192 30.2987 85.4392 30.2587C85.5792 30.2587 85.6992 30.2186 85.7992 30.1585C85.9192 30.1184 86.0192 30.0583 86.1192 29.9982C86.2192 29.9381 86.3192 29.8579 86.4192 29.7778C86.4392 29.7778 86.4592 29.7377 86.4792 29.7377C86.4992 29.7377 86.5192 29.7377 86.5592 29.7377V29.6776Z" fill="#1A332A"/>
<path d="M89.3804 26.772C89.6804 26.772 89.9404 26.812 90.1804 26.9122C90.4204 27.0124 90.6204 27.1527 90.8004 27.333C90.9804 27.5134 91.1004 27.7338 91.2004 27.9943C91.3004 28.2548 91.3404 28.5353 91.3404 28.8559C91.3404 29.1765 91.3004 29.4571 91.2004 29.7176C91.1004 29.9781 90.9804 30.1985 90.8004 30.3788C90.6404 30.5592 90.4204 30.6994 90.1804 30.7996C89.9404 30.8998 89.6604 30.9399 89.3804 30.9399C89.1004 30.9399 88.8004 30.8998 88.5604 30.7996C88.3204 30.6994 88.1204 30.5592 87.9404 30.3788C87.7604 30.1985 87.6404 29.9781 87.5404 29.7176C87.4404 29.4571 87.4004 29.1765 87.4004 28.8559C87.4004 28.5353 87.4404 28.2548 87.5404 27.9943C87.6404 27.7338 87.7604 27.5134 87.9404 27.333C88.1204 27.1527 88.3204 27.0124 88.5604 26.9122C88.8004 26.812 89.0804 26.772 89.3804 26.772ZM89.3804 30.3588C89.7604 30.3588 90.0604 30.2386 90.2404 29.9781C90.4204 29.7176 90.5204 29.3569 90.5204 28.876C90.5204 28.3951 90.4204 28.0344 90.2404 27.7739C90.0604 27.5134 89.7604 27.3731 89.3804 27.3731C89.0004 27.3731 88.7004 27.5134 88.5004 27.7739C88.3004 28.0344 88.2204 28.3951 88.2204 28.876C88.2204 29.3569 88.3204 29.7176 88.5004 29.9781C88.7004 30.2386 88.9804 30.3588 89.3804 30.3588Z" fill="#1A332A"/>
<path d="M92.2207 30.8998V26.8321H92.6807C92.7807 26.8321 92.8607 26.8922 92.8807 26.9924L92.9407 27.3731C93.0807 27.1928 93.2607 27.0525 93.4407 26.9323C93.6207 26.812 93.8407 26.772 94.0807 26.772C94.3207 26.772 94.5607 26.8521 94.7407 26.9924C94.9007 27.1327 95.0407 27.333 95.1007 27.5935C95.1607 27.4533 95.2407 27.333 95.3207 27.2128C95.4207 27.1126 95.5207 27.0325 95.6407 26.9523C95.7607 26.8922 95.8807 26.8321 96.0007 26.812C96.1207 26.772 96.2607 26.772 96.4007 26.772C96.6207 26.772 96.8007 26.812 96.9807 26.8722C97.1407 26.9323 97.3007 27.0325 97.4207 27.1727C97.5407 27.313 97.6207 27.4733 97.6807 27.6536C97.7407 27.834 97.7807 28.0744 97.7807 28.3149V30.8998H97.0007V28.3149C97.0007 28.0143 96.9407 27.7739 96.8007 27.6336C96.6607 27.4933 96.4807 27.3932 96.2207 27.3932C95.9607 27.3932 96.0007 27.3932 95.9007 27.4533C95.8007 27.5134 95.7207 27.5535 95.6407 27.6336C95.5607 27.7138 95.5007 27.814 95.4607 27.9141C95.4207 28.0344 95.4007 28.1546 95.4007 28.3149V30.8998H94.6207V28.3149C94.6207 27.9943 94.5607 27.7739 94.4407 27.6136C94.3207 27.4533 94.1407 27.3932 93.8807 27.3932C93.6207 27.3932 93.5607 27.4332 93.4207 27.5334C93.2807 27.6136 93.1407 27.7338 93.0207 27.8941V30.9199H92.2407L92.2207 30.8998Z" fill="#1A332A"/>
<path d="M99.5994 27.4332C99.6794 27.3331 99.7794 27.2329 99.8794 27.1527C99.9794 27.0726 100.079 26.9924 100.199 26.9323C100.319 26.8722 100.439 26.8321 100.559 26.792C100.679 26.752 100.819 26.752 100.959 26.752C101.199 26.752 101.399 26.792 101.579 26.8922C101.759 26.9924 101.919 27.1126 102.059 27.293C102.199 27.4733 102.299 27.6937 102.359 27.9542C102.439 28.2147 102.479 28.5153 102.479 28.8559C102.479 29.1966 102.439 29.4371 102.359 29.6975C102.279 29.958 102.159 30.1785 102.019 30.3788C101.859 30.5592 101.679 30.7195 101.459 30.8197C101.239 30.9199 100.999 30.98 100.719 30.98C100.439 30.98 100.259 30.9399 100.099 30.8598C99.9194 30.7796 99.7794 30.6594 99.6394 30.5191V32.2825H98.8594V26.8521H99.3194C99.4194 26.8521 99.4994 26.9123 99.5194 27.0124L99.5794 27.4733L99.5994 27.4332ZM99.6394 29.8979C99.7594 30.0582 99.8994 30.1785 100.059 30.2586C100.199 30.3187 100.379 30.3588 100.559 30.3588C100.919 30.3588 101.199 30.2386 101.379 29.9781C101.579 29.7176 101.679 29.3369 101.679 28.8559C101.679 28.375 101.659 28.375 101.619 28.1947C101.579 28.0144 101.519 27.854 101.419 27.7539C101.319 27.6537 101.239 27.5535 101.119 27.4934C100.999 27.4332 100.859 27.4132 100.699 27.4132C100.479 27.4132 100.279 27.4733 100.099 27.5735C99.9394 27.6737 99.7794 27.814 99.6394 28.0144V29.938V29.8979Z" fill="#1A332A"/>
<path d="M103.26 27.3932C103.48 27.1728 103.74 27.0124 104 26.9123C104.26 26.8121 104.56 26.752 104.88 26.752C105.2 26.752 105.32 26.792 105.5 26.8722C105.68 26.9523 105.82 27.0525 105.96 27.1928C106.1 27.3331 106.18 27.4934 106.24 27.6737C106.3 27.854 106.34 28.0745 106.34 28.2949V30.8998H106C105.92 30.8998 105.86 30.8998 105.82 30.8598C105.78 30.8397 105.74 30.7796 105.72 30.7195L105.64 30.3588C105.54 30.459 105.44 30.5391 105.34 30.6193C105.24 30.6995 105.14 30.7596 105.02 30.7996C104.9 30.8598 104.8 30.8998 104.66 30.9199C104.54 30.9399 104.4 30.9599 104.24 30.9599C104.08 30.9599 103.92 30.9399 103.8 30.8998C103.66 30.8598 103.54 30.7796 103.44 30.6995C103.34 30.5993 103.26 30.4991 103.2 30.3588C103.14 30.2185 103.1 30.0582 103.1 29.8779C103.1 29.6976 103.14 29.5573 103.24 29.417C103.32 29.2768 103.46 29.1365 103.66 29.0163C103.86 28.896 104.12 28.7958 104.42 28.7357C104.72 28.6756 105.12 28.6155 105.58 28.6155V28.3149C105.58 28.0144 105.52 27.7739 105.38 27.6336C105.24 27.4733 105.06 27.4132 104.8 27.4132C104.54 27.4132 104.48 27.4332 104.38 27.4733C104.26 27.5134 104.16 27.5735 104.08 27.6136C104 27.6537 103.92 27.7138 103.86 27.7539C103.8 27.7939 103.74 27.814 103.66 27.814C103.58 27.814 103.56 27.814 103.52 27.7739C103.48 27.7539 103.46 27.7138 103.42 27.6737L103.28 27.4132L103.26 27.3932ZM105.56 29.0964C105.24 29.0964 104.98 29.1365 104.76 29.1766C104.54 29.2166 104.36 29.2767 104.22 29.3369C104.08 29.397 103.98 29.4771 103.92 29.5573C103.86 29.6374 103.82 29.7376 103.82 29.8579C103.82 29.9781 103.82 30.0382 103.86 30.1183C103.9 30.1985 103.94 30.2586 104 30.2987C104.06 30.3388 104.12 30.3788 104.2 30.3989C104.28 30.4189 104.36 30.439 104.46 30.439C104.56 30.439 104.68 30.439 104.78 30.3989C104.88 30.3788 104.98 30.3388 105.06 30.2987C105.14 30.2586 105.24 30.1985 105.32 30.1384C105.4 30.0783 105.48 29.9981 105.56 29.918V29.1164V29.0964Z" fill="#1A332A"/>
<path d="M108.121 27.3932C108.201 27.293 108.301 27.2128 108.401 27.1327C108.501 27.0525 108.601 26.9924 108.701 26.9323C108.801 26.8722 108.921 26.8321 109.041 26.812C109.161 26.792 109.301 26.772 109.441 26.772C109.661 26.772 109.861 26.812 110.041 26.8922C110.221 26.9724 110.361 27.0725 110.461 27.2128C110.581 27.3531 110.661 27.5134 110.721 27.6937C110.781 27.8741 110.801 28.0945 110.801 28.3149V30.8998H110.021V28.3149C110.021 28.0143 109.961 27.7939 109.821 27.6336C109.681 27.4733 109.481 27.3932 109.201 27.3932C108.921 27.3932 108.821 27.4332 108.641 27.5334C108.461 27.6336 108.301 27.7538 108.161 27.9141V30.8998H107.381V26.8321H107.841C107.941 26.8321 108.021 26.8922 108.041 26.9924L108.101 27.3932H108.121Z" fill="#1A332A"/>
<path d="M115.319 26.8325L113.059 32.0825C113.039 32.1426 112.999 32.1827 112.959 32.2228C112.919 32.2629 112.859 32.2629 112.779 32.2629H112.199L112.939 30.6398L111.279 26.8325H111.959C112.019 26.8325 112.079 26.8325 112.119 26.8726C112.159 26.9127 112.179 26.9327 112.199 26.9728L113.239 29.4174C113.259 29.4776 113.279 29.5377 113.299 29.5978C113.319 29.6579 113.339 29.718 113.339 29.7781C113.339 29.718 113.379 29.6579 113.399 29.5978C113.419 29.5377 113.439 29.4776 113.459 29.4174L114.459 26.9728C114.459 26.9327 114.499 26.8927 114.539 26.8526C114.579 26.8125 114.619 26.8125 114.679 26.8125H115.299L115.319 26.8325Z" fill="#1A332A"/>
</g>
</g>
</g>
<defs>
<clipPath id="clip0_2752_32332">
<rect width="120" height="33" fill="white"/>
</clipPath>
<clipPath id="clip1_2752_32332">
<rect width="120" height="36.83" fill="white"/>
</clipPath>
<clipPath id="clip2_2752_32332">
<rect width="120" height="36.83" fill="white"/>
</clipPath>
</defs>
</svg>
