<svg xmlns="http://www.w3.org/2000/svg" xmlns:xlink="http://www.w3.org/1999/xlink" viewBox="0 0 201.513 38.703" overflow="visible"><g><path d="M 132.932 33.126 L 129.143 33.126 L 129.143 15.579 L 133.193 15.579 L 133.193 21.358 C 133.464 21.046 134.65 20.071 136.59 20.071 C 140.278 20.071 142.61 22.815 142.61 26.775 C 142.61 30.734 140.037 33.448 136.369 33.448 C 134.499 33.448 133.283 32.554 132.922 32.141 L 132.922 33.136 Z M 135.826 29.9 C 137.454 29.9 138.57 28.684 138.57 26.795 C 138.57 24.905 137.474 23.639 135.826 23.639 C 134.178 23.639 133.082 24.775 133.082 26.795 C 133.082 28.493 134.077 29.9 135.826 29.9 Z M 149.534 37.468 L 145.695 37.468 L 147.414 32.714 L 142.66 20.383 L 147.002 20.383 L 149.263 27.709 L 151.615 20.383 L 155.836 20.383 L 149.524 37.468 Z" fill="rgb(217,179,40)"></path><path d="M 0 0 L 12.1 0 C 19.537 0 24.582 4.663 24.582 11.829 C 24.582 18.994 19.316 23.818 12.15 23.818 L 7.648 23.818 L 7.648 37.979 L 0 37.979 Z M 11.075 17.206 C 14.442 17.206 16.723 15.035 16.723 11.829 C 16.723 8.623 14.392 6.623 11.186 6.623 L 7.658 6.623 L 7.658 17.206 Z M 37.919 8.904 C 46.712 8.904 51.707 14.763 51.707 24.05 C 51.707 24.592 51.707 25.135 51.657 25.678 L 31.688 25.678 C 31.848 29.477 34.894 32.19 39.064 32.19 C 42.913 32.19 45.145 29.909 45.959 28.713 L 50.893 32.461 C 49.808 34.471 46.009 38.703 38.954 38.703 C 29.838 38.703 24.03 32.411 24.03 23.889 C 24.03 15.366 29.838 8.914 37.919 8.914 Z M 44.109 20.783 C 43.949 17.306 41.446 15.035 38.029 15.035 C 34.612 15.035 32.22 17.527 31.899 20.783 Z M 55.577 3.638 L 62.953 3.638 L 62.953 9.608 L 68.27 9.608 L 68.27 15.688 L 62.953 15.688 L 62.953 26.653 C 62.953 30.884 64.26 31.758 67.134 31.758 C 67.626 31.758 67.898 31.758 68.491 31.708 L 68.491 38.11 C 68.491 38.11 67.355 38.381 65.285 38.381 C 58.501 38.381 55.516 34.582 55.516 26.874 L 55.516 15.698 L 52.531 15.698 L 52.531 9.618 L 55.566 9.618 L 55.566 3.638 Z M 71.646 0 L 83.093 0 C 91.395 0 95.957 5.045 95.957 11.286 C 95.957 15.899 93.676 19.427 90.209 21.326 L 99.214 37.989 L 90.752 37.989 L 83.375 23.115 L 79.305 23.115 L 79.305 37.989 L 71.657 37.989 L 71.657 0 Z M 82.872 16.663 C 85.636 16.663 88.078 14.924 88.078 11.558 C 88.078 8.522 85.958 6.623 82.49 6.623 L 79.284 6.623 L 79.284 16.663 L 82.862 16.663 Z" fill="rgb(10,61,93)"></path><path d="M 111.17 28.977 L 105.09 37.881 L 97 37.881 L 106.99 23.389 L 97.442 9.5 L 105.854 9.5 L 111.171 18.133 L 116.487 9.5 L 124.899 9.5 L 115.351 23.389 L 125.341 37.881 L 117.201 37.881 L 111.181 28.977 Z" fill="rgb(10,61,93)"></path><path d="M 170.85 16.082 L 174.9 16.082 L 174.9 33.066 L 170.85 33.066 Z M 180.558 27.76 C 180.659 28.895 181.744 29.87 183.252 29.87 C 184.759 29.87 185.674 28.875 185.925 28.514 L 188.598 30.574 C 188.236 31.328 186.488 33.388 183.191 33.388 C 178.99 33.388 176.428 30.503 176.428 26.745 C 176.428 22.986 178.95 20.021 182.689 20.021 C 186.739 20.021 188.95 22.614 188.95 26.956 C 188.95 27.197 188.95 27.468 188.93 27.76 L 180.588 27.76 Z M 180.679 25.187 L 184.799 25.187 C 184.749 24.172 183.995 23.298 182.739 23.298 C 181.402 23.298 180.769 24.293 180.679 25.187 Z" fill="rgb(217,179,40)"></path><path d="M 194.94 30.139 L 192.709 33.556 L 188.367 33.556 L 192.709 27.104 L 188.488 20.823 L 193 20.823 L 194.94 24.24 L 196.88 20.823 L 201.392 20.823 L 197.171 27.104 L 201.513 33.556 L 197.171 33.556 Z M 160.308 18.431 L 160.308 33.556 L 164.458 33.556 L 164.458 27.084 L 168.679 27.084 L 168.679 23.396 L 164.458 23.396 L 164.458 20.29 L 169.282 20.29 L 169.282 16.582 L 162.157 16.582 C 161.132 16.582 160.298 17.416 160.298 18.441 Z" fill="rgb(217,179,40)"></path></g></svg>
