<?xml version="1.0" encoding="utf-8"?>
<!-- Generator: Adobe Illustrator 12.0.0, SVG Export Plug-In . SVG Version: 6.00 Build 51448)  -->
<!DOCTYPE svg PUBLIC "-//W3C//DTD SVG 1.1//EN" "http://www.w3.org/Graphics/SVG/1.1/DTD/svg11.dtd" [
	<!ENTITY ns_svg "http://www.w3.org/2000/svg">
	<!ENTITY ns_xlink "http://www.w3.org/1999/xlink">
]>
<svg  version="1.1" id="Layer_1" xmlns="&ns_svg;" xmlns:xlink="&ns_xlink;" width="1095.283" height="146.755"
	 viewBox="0 0 1095.283 146.755" overflow="visible" enable-background="new 0 0 1095.283 146.755" xml:space="preserve">
<g>
	<path fill-rule="evenodd" clip-rule="evenodd" fill="#CC0000" d="M465.293,47.387c-4.955-8.241-12.382-12.004-21.683-12.004
		l-11.773,3.422l-9.302,9.608V37.428h-23.24v97.456h25.728v-31.557c4.648,5.834,9.909,8.572,16.723,8.572
		c8.677,0,15.497-2.738,21.079-8.572c6.81-6.864,9.91-16.472,9.91-29.86C472.735,62.821,469.941,53.568,465.293,47.387
		L465.293,47.387z M446.706,74.155c0,10.981-3.401,16.127-11.145,16.127c-6.824,0-10.537-5.844-10.537-16.815l2.789-12.013
		c1.859-2.75,4.638-4.459,7.121-4.459C442.681,56.995,446.706,62.821,446.706,74.155L446.706,74.155z"/>
	<path fill-rule="evenodd" clip-rule="evenodd" fill="#CC0000" d="M554.229,66.603c0-20.924-8.372-31.22-25.407-31.22
		c-7.748,0-14.255,3.764-19.521,11.312V10.655h-26.351v99.521h26.351v-36.71c0-9.607,3.095-14.763,9.291-14.763
		c6.814,0,9.909,4.469,9.909,13.042v38.431h25.728V66.603L554.229,66.603z"/>
	<path fill-rule="evenodd" clip-rule="evenodd" fill="#CC0000" d="M631.06,43.953c-4.643-5.827-13.934-8.57-28.194-8.57
		c-23.24,0-35.31,7.887-35.31,24.369h24.777c0.623-4.475,3.096-6.875,8.979-6.875c5.578,0,8.065,2.399,8.065,6.522l-7.131,5.14
		l-15.491,2.757c-16.104,2.736-23.854,10.288-23.854,22.986c0,6.854,2.788,12.346,7.421,16.462
		c4.041,3.433,9.614,5.155,16.433,5.155c9.93,0,17.975-2.738,24.792-9.271l0.936,7.549h26.948v-1.016l-4.035-9.959V66.266
		C635.396,55.276,633.854,47.729,631.06,43.953L631.06,43.953z M609.378,78.262c1.235,12.02-2.487,17.507-10.844,17.507
		c-5.578,0-8.674-1.698-8.674-5.487c0-4.12,2.166-6.864,6.825-8.241L609.378,78.262L609.378,78.262z"/>
	<path fill-rule="evenodd" clip-rule="evenodd" fill="#CC0000" d="M650.28,37.428v72.749h25.405v-25.04
		c0-14.426,4.956-21.277,15.799-21.277l5.885,0.68v-28.82l-3.101-0.337c-9.903,0-17.028,5.484-20.753,17.153h-0.624V37.428H650.28
		L650.28,37.428z"/>
	<path fill-rule="evenodd" clip-rule="evenodd" fill="#CC0000" d="M706.977,110.176h26.029V74.155
		c0-10.296,3.086-15.452,8.679-15.452c3.714,0,5.576,1.048,6.818,2.75l1.542,12.013v36.71h26.341V74.155
		c0-10.296,3.102-15.452,9.286-15.452l6.519,2.75l1.552,12.013v36.71h26.341v-42.88c0-21.283-8.07-31.914-25.114-31.914
		c-9.297,0-16.724,4.459-22.302,13.713c-3.723-9.254-10.833-13.713-21.701-13.713c-4.634,0-8.679,1.704-13.004,4.459l-7.749,8.57
		V37.428h-23.236V110.176L706.977,110.176z"/>
	<path fill-rule="evenodd" clip-rule="evenodd" fill="#CC0000" d="M896.613,43.953c-4.654-5.827-13.954-8.57-27.899-8.57
		c-24.17,0-36.26,7.887-36.26,24.369h25.416c0.623-4.475,3.101-6.875,8.679-6.875c5.885,0,8.989,2.399,8.989,6.522
		c0,2.744-2.8,4.46-7.451,5.14l-15.785,2.757c-16.125,2.736-23.872,10.288-23.872,22.986c0,6.854,2.497,12.346,7.747,16.462
		c4.025,3.433,9.303,5.155,16.125,5.155c9.589,0,17.353-2.738,24.17-9.271l1.533,7.549h26.336v-1.016
		c-2.161-2.417-3.095-5.834-3.095-9.959V66.266C901.246,55.276,899.688,47.729,896.613,43.953L896.613,43.953z M875.538,78.262
		c0.307,12.02-3.104,17.507-11.472,17.507c-5.573,0-8.362-1.698-8.362-5.487c0-4.12,2.166-6.864,6.819-8.241L875.538,78.262
		L875.538,78.262z"/>
	<path fill-rule="evenodd" clip-rule="evenodd" fill="#CC0000" d="M973.449,42.232c-5.588-4.804-13.949-6.85-23.563-6.85
		c-10.834,0-19.819,3.422-26.335,10.63c-6.809,6.864-10.537,16.808-10.537,28.832c0,12.011,3.729,20.925,10.537,27.783
		c6.516,6.533,15.501,9.271,26.335,9.271c21.999,0,34.089-9.607,36.571-29.858h-26.335c-0.623,6.875-4.026,10.301-10.236,10.301
		c-7.422,0-10.834-5.486-10.834-17.497c0-13.391,3.412-20.25,10.834-20.25c3.111,0,4.96,1.37,6.518,3.078l3.096,7.208h26.341
		C985.529,55.276,981.187,47.387,973.449,42.232L973.449,42.232z"/>
	<path fill-rule="evenodd" clip-rule="evenodd" fill="#CC0000" d="M1018.984,37.428h-26.335l21.696,66.583v7.889
		c-0.933,1.709-3.723,2.402-7.752,2.402l-5.266-0.693v20.582l11.461,0.693c10.844,0,18.602-2.393,22.622-6.859l9.919-23
		l21.064-67.596h-24.783l-11.164,44.613L1018.984,37.428L1018.984,37.428z"/>
</g>
<g>
	<path fill-rule="evenodd" clip-rule="evenodd" fill="#CC0000" d="M80.153,58.118h36.084c-1.503-16.628-7.211-29.28-16.99-38.425
		c-10.07-9.148-23.758-13.972-41.35-13.972c-16.542,0-30.074,6.155-40.903,18.134C5.713,36.332,0,52.63,0,73.092
		c0,20.798,5.563,37.431,16.241,49.731c11.28,12.15,26.315,18.312,45.41,18.312c15.341,0,28.125-4.828,38.049-14.14
		c10.07-9.819,15.783-22.794,17.592-39.095H80.449c-1.809,14.638-7.969,21.789-19.25,21.789c-9.02,0-15.331-3.488-18.798-10.804
		c-2.854-5.498-4.352-13.482-4.352-24.299c0-12.308,2.105-21.456,5.864-27.775c3.759-6.324,8.719-9.652,15.482-9.652
		c6.02,0,10.834,1.834,14.587,5.492C77.444,46.309,79.398,51.47,80.153,58.118L80.153,58.118z"/>
	<polygon fill-rule="evenodd" clip-rule="evenodd" fill="#CC0000" points="197.289,9.047 176.39,94.724 155.934,9.047 
		117.593,9.047 157.14,137.803 195.485,137.803 235.784,9.047 197.289,9.047 	"/>
	<path fill-rule="evenodd" clip-rule="evenodd" fill="#CC0000" d="M253.679,16.036c-9.623,7.153-14.286,17.464-14.286,30.775
		c0,10.809,3.462,19.627,10.226,26.281c5.261,4.822,13.085,8.979,23.009,12.311l23.155,6.653c6.763,2.497,10.22,5.823,10.22,9.985
		c0,2.982-1.497,5.154-4.201,6.822l-11.583,2.492c-4.065,0-7.522-0.998-10.829-3.336c-3.161-2.155-5.266-5.482-6.014-10.141H236.84
		c0.296,12.141,5.261,22.461,14.582,30.441c9.778,8.653,21.955,12.813,36.843,12.813c16.537,0,29.471-3.663,39.094-11.15
		c10.231-7.819,15.19-18.798,15.19-33.27c0-10.809-3.457-19.128-10.523-25.452c-4.964-4.824-12.486-8.647-22.707-11.974
		l-23.166-6.658c-6.915-2.495-10.522-5.819-10.522-9.98c0-4.995,4.06-7.486,12.331-7.486l9.472,2.492
		c3.307,2.003,5.266,4.661,5.869,8.817h36.084c-1.503-12.472-6.01-22.123-13.834-29.112c-8.718-7.646-20.603-11.64-35.788-11.64
		C274.728,5.721,262.703,9.047,253.679,16.036L253.679,16.036z"/>
</g>
<line fill-rule="evenodd" clip-rule="evenodd" fill="none" stroke="#CC0000" stroke-width="15.4366" x1="401.024" y1="2.642" x2="349.483" y2="144.114"/>

</svg>
