<svg id="_01-beagle" data-name="01-beagle" xmlns="http://www.w3.org/2000/svg" viewBox="0 0 64 64"><title>01-beagle</title><ellipse cx="23" cy="16" rx="2" ry="3" style="fill:#2f261f"/><ellipse cx="41" cy="16" rx="2" ry="3" style="fill:#2f261f"/><path d="M36,28l-4,4-4-4a5,5,0,0,1,8,0Z" style="fill:#2f261f"/><path d="M32,35s3.37,3.37,7.01,3.92L39,39H25l-.01-.08C28.63,38.37,32,35,32,35Z" style="fill:#6b5545"/><path d="M32,32l4-4a5,5,0,0,0-8,0Zm0,3s-3.37,3.37-7.01,3.92A6.607,6.607,0,0,1,24,39c-2.76,0-5-1.58-5-6V31.66a4.727,4.727,0,0,1,.04-.65,5.94,5.94,0,0,1,.82-2.44l6.68-9.5A7.98,7.98,0,0,0,28,14.47V5a4,4,0,0,1,8,0v9.47a7.98,7.98,0,0,0,1.46,4.6l6.68,9.5a5.94,5.94,0,0,1,.82,2.44,4.727,4.727,0,0,1,.04.65V33c0,4.42-2.24,6-5,6a6.607,6.607,0,0,1-.99-.08C35.37,38.37,32,35,32,35Z" style="fill:#ffe0d1"/><path d="M23,19c1.1,0,2-1.34,2-3s-.9-3-2-3-2,1.34-2,3S21.9,19,23,19Zm5-4.53a7.98,7.98,0,0,1-1.46,4.6l-6.68,9.5a5.94,5.94,0,0,0-.82,2.44L19,31,14.72,19.87a10.761,10.761,0,0,1,0-7.74l1.81-4.72A10.075,10.075,0,0,1,25.87,1H32a3.995,3.995,0,0,0-4,4Z" style="fill:#db996e"/><path d="M39,16c0,1.66.9,3,2,3s2-1.34,2-3-.9-3-2-3S39,14.34,39,16Zm-1.54,3.07A7.98,7.98,0,0,1,36,14.47V5a4,4,0,0,0-4-4h6.13a10.075,10.075,0,0,1,9.34,6.41l1.81,4.72a10.761,10.761,0,0,1,0,7.74L45,31l-.04.01a5.94,5.94,0,0,0-.82-2.44Z" style="fill:#db996e"/><path d="M39.92,45.03C40.8,47.35,42,48.58,42,53c0,6-10,6-10,6s-10,0-10-6c0-4.42,1.2-5.65,2.08-7.97A16.217,16.217,0,0,0,25,39H39A16.217,16.217,0,0,0,39.92,45.03Z" style="fill:#db996e"/><path d="M24.08,45.03C23.2,47.35,22,48.58,22,53c0,6,10,6,10,6s10,0,10-6c0-4.42-1.2-5.65-2.08-7.97L40,45l6,8,2-2s3.29.82,3.9,3.95a.433.433,0,0,0,.01.05L52,56v7H12V56l.09-.94C12.65,52,16,52,16,52l2,1,6-8Z" style="fill:#ffc09e"/><path d="M49.25,41.07a26,26,0,0,1,2.14,8.21l.51,5.67C51.29,51.82,48,51,48,51l-2,2-6-8-.08.03A16.217,16.217,0,0,1,39,39l.01-.08A6.607,6.607,0,0,0,40,39c2.76,0,5-1.58,5-6V31.66a4.727,4.727,0,0,0-.04-.65L45,31l4,10,.19-.08Z" style="fill:#4d3d32"/><path d="M25,39a16.217,16.217,0,0,1-.92,6.03L24,45l-6,8-2-1s-3.35,0-3.91,3.06l.52-5.78a26,26,0,0,1,2.14-8.21l.06-.15L15,41l4-10,.04.01a4.727,4.727,0,0,0-.04.65V33c0,4.42,2.24,6,5,6a6.607,6.607,0,0,0,.99-.08Z" style="fill:#4d3d32"/><path d="M16.48,4.01l3.33-.95a10,10,0,0,0-3.28,4.35l-1.81,4.72a10.761,10.761,0,0,0,0,7.74L19,31,15,41l-.19-.08-3.08-1.23a5.948,5.948,0,0,1-2.76-2.24L5.34,32.02A8.066,8.066,0,0,1,4,27.58V25.8a7.961,7.961,0,0,1,.77-3.43l6.68-14.1A8,8,0,0,1,16.48,4.01Z" style="fill:#db996e"/><path d="M60,25.8v1.78a8.066,8.066,0,0,1-1.34,4.44l-3.63,5.43a5.948,5.948,0,0,1-2.76,2.24l-3.08,1.23L49,41,45,31l4.28-11.13a10.761,10.761,0,0,0,0-7.74L47.47,7.41a10,10,0,0,0-3.28-4.35l3.33.95a8,8,0,0,1,5.03,4.26l6.68,14.1A7.961,7.961,0,0,1,60,25.8Z" style="fill:#db996e"/><path d="M35,29l1-1a5,5,0,0,0-8,0l1,1a5,5,0,0,1,6,0Z" style="fill:#4d3d32"/><path d="M34.5,39H39l.01-.08C35.37,38.37,32,35,32,35s-3.37,3.37-7.01,3.92L25,39h4.5c.472-.315.895-.629,1.253-.913a2.008,2.008,0,0,1,2.5,0C33.609,38.371,34.032,38.685,34.5,39Z" style="fill:#4d3d32"/><path d="M50.2,33.748l-.84-1.049a4,4,0,0,1-.671-3.763l3.561-10.682A6,6,0,0,0,52,13.843L47.458,3.992,44.19,3.06a10,10,0,0,1,3.28,4.35l1.81,4.72a10.761,10.761,0,0,1,0,7.74L45,31l4,10,.19-.08,3.08-1.23a5.948,5.948,0,0,0,2.76-2.24L56,36H54.884A6,6,0,0,1,50.2,33.748Z" style="fill:#af7a58"/><path d="M14,16a10.707,10.707,0,0,1,.72-3.87l1.81-4.72a10,10,0,0,1,3.28-4.35l-3.268.932L12,13.843a6,6,0,0,0-.245,4.411l3.561,10.682a4,4,0,0,1-.671,3.763l-.84,1.049A6,6,0,0,1,9.116,36H8l.969,1.45a5.948,5.948,0,0,0,2.76,2.24l3.08,1.23L15,41l4-10L14.72,19.87A10.707,10.707,0,0,1,14,16Z" style="fill:#af7a58"/><path d="M52.326,17.919c.659,2.965,2.56,8.381,7.674,9.013V25.8a7.961,7.961,0,0,0-.77-3.43L52.55,8.27a8,8,0,0,0-5.03-4.26l-.062-.018L52,13.843A5.98,5.98,0,0,1,52.326,17.919Z" style="fill:#ffb280"/><path d="M11.674,17.919C11.015,20.884,9.114,26.3,4,26.932V25.8a7.961,7.961,0,0,1,.77-3.43l6.68-14.1a8,8,0,0,1,5.03-4.26l.062-.018L12,13.843A5.98,5.98,0,0,0,11.674,17.919Z" style="fill:#ffb280"/><path d="M25.7,45H38.3a7.987,7.987,0,0,0,1.552-.157A16.462,16.462,0,0,1,39,39H25a16.462,16.462,0,0,1-.854,5.843A7.987,7.987,0,0,0,25.7,45Z" style="fill:#9a6948"/><path d="M12.09,55.06,12,56v7h3V52.141A3.614,3.614,0,0,0,12.09,55.06Z" style="fill:#ffe0d1"/><path d="M51.91,55a.433.433,0,0,1-.01-.05A5.085,5.085,0,0,0,49,51.39V63h3V56Z" style="fill:#ffe0d1"/><path d="M49,41,45,31l-.04.01a4.727,4.727,0,0,1,.04.65V33a8.283,8.283,0,0,1-.585,3.3L46.84,41.96Z" style="fill:#2f261f"/><path d="M47.383,43.227A20,20,0,0,1,49,51.105v.285a5.085,5.085,0,0,1,2.9,3.56l-.51-5.67a26,26,0,0,0-2.14-8.21l-.06-.15L49,41l-2.16.96Z" style="fill:#6b5545"/><path d="M41.551,44.31l5.289-2.35L44.415,36.3A4.449,4.449,0,0,1,40,39a6.607,6.607,0,0,1-.99-.08L39,39a16.462,16.462,0,0,0,.854,5.843A7.942,7.942,0,0,0,41.551,44.31Z" style="fill:#2f261f"/><path d="M19.585,36.3A8.283,8.283,0,0,1,19,33V31.66a4.727,4.727,0,0,1,.04-.65L19,31,15,41l2.16.96Z" style="fill:#2f261f"/><path d="M15,52.141V51.105a20,20,0,0,1,1.617-7.878l.543-1.267L15,41l-.19-.08-.06.15a26,26,0,0,0-2.14,8.21l-.52,5.78A3.614,3.614,0,0,1,15,52.141Z" style="fill:#6b5545"/><path d="M22.449,44.31a7.942,7.942,0,0,0,1.7.533A16.462,16.462,0,0,0,25,39l-.01-.08A6.607,6.607,0,0,1,24,39a4.449,4.449,0,0,1-4.415-2.7L17.16,41.96Z" style="fill:#2f261f"/><path d="M44.538,29.379C43.045,31.736,38.009,34,32,34s-11.045-2.264-12.538-4.621a5.9,5.9,0,0,0-.422,1.631,4.727,4.727,0,0,0-.04.65V33c0,4.42,2.24,6,5,6a6.607,6.607,0,0,0,.99-.08C28.63,38.37,32,35,32,35s3.37,3.37,7.01,3.92A6.607,6.607,0,0,0,40,39c2.76,0,5-1.58,5-6V31.66a4.727,4.727,0,0,0-.04-.65A5.9,5.9,0,0,0,44.538,29.379Z" style="fill:#ffceb3"/><path d="M41,12c-1.682,0-3,1.757-3,4s1.318,4,3,4,3-1.757,3-4S42.682,12,41,12Zm0,7c-1.1,0-2-1.343-2-3s.9-3,2-3,2,1.343,2,3S42.105,19,41,19Z" style="fill:#c98d65"/><path d="M23,12c-1.682,0-3,1.757-3,4s1.318,4,3,4,3-1.757,3-4S24.682,12,23,12Zm0,7c-1.105,0-2-1.343-2-3s.895-3,2-3,2,1.343,2,3S24.105,19,23,19Z" style="fill:#c98d65"/><path d="M28.556,3h6.89A3.982,3.982,0,0,0,32,1a4.025,4.025,0,0,0-2.83,1.17A4.12,4.12,0,0,0,28.556,3Z" style="fill:#fff6f0"/><path d="M16.72,14.13l1.81-4.72A10.075,10.075,0,0,1,27.87,3h.686a4.12,4.12,0,0,1,.614-.83A4.025,4.025,0,0,1,32,1H25.87a10.075,10.075,0,0,0-9.34,6.41l-1.81,4.72A10.707,10.707,0,0,0,14,16a5.251,5.251,0,0,0,2.666,4.263A4.322,4.322,0,0,1,16,18,10.707,10.707,0,0,1,16.72,14.13Z" style="fill:#f0a778"/><path d="M50,16a10.707,10.707,0,0,0-.72-3.87L47.47,7.41A10.075,10.075,0,0,0,38.13,1H32a3.982,3.982,0,0,1,3.446,2h.684a10.075,10.075,0,0,1,9.34,6.41l1.81,4.72A10.707,10.707,0,0,1,48,18a4.322,4.322,0,0,1-.666,2.263A5.252,5.252,0,0,0,50,16Z" style="fill:#f0a778"/><path d="M24.612,21.813A7.136,7.136,0,0,1,23,22c-4.975,0-9-2.684-9-6a10.707,10.707,0,0,0,.72,3.87L19,31l.04.01a5.94,5.94,0,0,1,.82-2.44Z" style="fill:#c98d65"/><path d="M41,22a7.136,7.136,0,0,1-1.612-.187L44.14,28.57a5.94,5.94,0,0,1,.82,2.44L45,31l4.28-11.13A10.707,10.707,0,0,0,50,16C50,19.316,45.975,22,41,22Z" style="fill:#c98d65"/><ellipse cx="54.682" cy="18.708" rx="0.825" ry="1.148" transform="translate(2.796 44.163) rotate(-45.02)" style="fill:#f6fafd"/><ellipse cx="33.427" cy="28.208" rx="0.413" ry="0.574" transform="translate(-10.154 31.914) rotate(-45.02)" style="fill:#f6fafd"/><ellipse cx="56.684" cy="22.695" rx="1.642" ry="2.286" transform="translate(0.563 46.748) rotate(-45.02)" style="fill:#f6fafd"/><path d="M32,25a6,6,0,0,0-4.832,2.445,1,1,0,0,0,.125,1.262l4,4a1,1,0,0,0,1.414,0l4-4a1,1,0,0,0,.125-1.262A6,6,0,0,0,32,25Zm0,5.586L29.384,27.97a4.015,4.015,0,0,1,5.233,0Z"/><path d="M41,12c-1.682,0-3,1.757-3,4s1.318,4,3,4,3-1.757,3-4S42.682,12,41,12Zm0,6c-.408,0-1-.779-1-2s.592-2,1-2,1,.779,1,2S41.408,18,41,18Z"/><path d="M23,20c1.682,0,3-1.757,3-4s-1.318-4-3-4-3,1.757-3,4S21.318,20,23,20Zm0-6c.408,0,1,.779,1,2s-.592,2-1,2-1-.779-1-2S22.592,14,23,14Z"/><path d="M60.134,21.946l-6.68-14.1a9,9,0,0,0-5.661-4.8l-3.187-.911A11,11,0,0,0,38.132,0H25.868a11,11,0,0,0-6.474,2.133l-3.187.911a9,9,0,0,0-5.661,4.8L9.254,10.572l1.808.856L12.354,8.7A7,7,0,0,1,16.66,5,10.834,10.834,0,0,0,15.6,7.051l-1.817,4.723a11.768,11.768,0,0,0,0,8.452l4.141,10.766L14.443,39.7,12.1,38.763A4.978,4.978,0,0,1,9.8,36.9L6.176,31.461A6.982,6.982,0,0,1,5,27.578V25.8a7.047,7.047,0,0,1,.674-3L8.22,17.428l-1.808-.856L3.866,21.946A9.062,9.062,0,0,0,3,25.8v1.779A8.969,8.969,0,0,0,4.512,32.57L8.134,38a6.964,6.964,0,0,0,3.225,2.616l3.269,1.308a1,1,0,0,0,1.3-.556L18.278,35.5a5.533,5.533,0,0,0,5.7,4.5,14.228,14.228,0,0,1-.746,4.424L23.2,44.4l-5.5,7.332-1.254-.627A1,1,0,0,0,16,51a5.661,5.661,0,0,0-2.6.677l.21-2.307c.067-.736.167-1.473.3-2.192l-1.967-.357c-.142.777-.249,1.573-.322,2.368L11.1,54.94A6.14,6.14,0,0,0,11,56v7a1,1,0,0,0,1,1H52a1,1,0,0,0,1-1l0-7h0c0-.026,0-.05,0-.076V55.91l0-.019a6.282,6.282,0,0,0-.082-.911l-.527-5.791a27,27,0,0,0-1.42-6.518l-1.886.664a24.992,24.992,0,0,1,1.314,6.035l.165,1.8a6.782,6.782,0,0,0-2.315-1.14,1,1,0,0,0-.95.263l-1.185,1.185L40.8,44.4l-.03.023A14.228,14.228,0,0,1,40.024,40a5.533,5.533,0,0,0,5.7-4.5l2.349,5.874a1,1,0,0,0,1.3.556l3.269-1.307A6.972,6.972,0,0,0,55.866,38l3.622-5.434A8.969,8.969,0,0,0,61,27.578V25.8A9.062,9.062,0,0,0,60.134,21.946ZM15,16a9.741,9.741,0,0,1,.651-3.508l1.817-4.723A9.053,9.053,0,0,1,25.868,2h2.158A4.948,4.948,0,0,0,27,5v9.467A6.969,6.969,0,0,1,25.725,18.5L19,28.06c-.013.021-.021.043-.033.064l-3.314-8.616A9.741,9.741,0,0,1,15,16ZM41,53c0,4.929-8.911,5-9,5s-9-.057-9-5a12.032,12.032,0,0,1,1.333-6.042A15.6,15.6,0,0,0,25.983,40H38.017a15.6,15.6,0,0,0,1.65,6.958A12.032,12.032,0,0,1,41,53ZM29.8,38A19.734,19.734,0,0,0,32,36.354,19.734,19.734,0,0,0,34.2,38ZM45.929,54a1,1,0,0,0,.778-.291l1.558-1.558A4.133,4.133,0,0,1,51,56v6H13l0-5.91.04-.442a2.794,2.794,0,0,1,2.748-2.638l1.769.885a1,1,0,0,0,1.247-.3l2.36-3.147A18.888,18.888,0,0,0,21,53c0,6.92,10.551,7,11,7s11-.08,11-7a18.888,18.888,0,0,0-.16-2.547L45.2,53.6A1,1,0,0,0,45.929,54ZM44,33c0,3.318-1.346,5-4,5-3.531,0-7.256-3.671-7.293-3.708a1,1,0,0,0-1.414,0C31.256,34.33,27.545,38,24,38c-2.654,0-4-1.682-4-5V31.662a4.978,4.978,0,0,1,.673-2.512l6.687-9.5A8.952,8.952,0,0,0,29,14.467V5a3,3,0,0,1,6,0v9.467a8.952,8.952,0,0,0,1.64,5.18l6.648,9.442A5.014,5.014,0,0,1,44,31.662Zm15-5.422a6.982,6.982,0,0,1-1.176,3.883L54.2,36.9a4.986,4.986,0,0,1-2.3,1.869l-2.341.936-3.483-8.707,1.782-4.634-1.867-.718-.958,2.491c-.025-.044-.042-.09-.068-.133l-6.688-9.5A6.969,6.969,0,0,1,37,14.467V5a4.948,4.948,0,0,0-1.026-3h2.158a9.053,9.053,0,0,1,8.4,5.769l1.817,4.723a9.777,9.777,0,0,1,0,7.016l-1.59,4.133,1.866.718,1.59-4.133a11.768,11.768,0,0,0,0-8.452L48.4,7.051A10.834,10.834,0,0,0,47.34,5a7,7,0,0,1,4.306,3.7l6.68,14.1a7.047,7.047,0,0,1,.674,3Z"/><rect x="7.63" y="13" width="2.213" height="2" transform="translate(-7.656 15.901) rotate(-64.649)"/><path d="M14.923,43.333l-1.887-.666c-.239.68-.454,1.379-.638,2.078l1.934.509C14.5,44.608,14.7,43.961,14.923,43.333Z"/></svg>