<svg xmlns="http://www.w3.org/2000/svg" viewBox="0 0 64 64"><title>30-russian blue</title><g id="_30-russian_blue" data-name="30-russian blue"><path d="M34.97,42.81,35,43l-1.94,1.55a1.473,1.473,0,0,1-2.12,0L29,43l.03-.19A3.044,3.044,0,0,1,32,41,3.044,3.044,0,0,1,34.97,42.81Z" style="fill:#252224"/><path d="M34.28,37.98l.69,4.83A3.044,3.044,0,0,0,32,41a3.044,3.044,0,0,0-2.97,1.81l.69-4.83a2.3,2.3,0,0,1,4.56,0Z" style="fill:#6c6c78"/><circle cx="40" cy="31" r="3" style="fill:#17171b"/><circle cx="24" cy="31" r="3" style="fill:#17171b"/><path d="M46,30a4,4,0,0,1-4,4H40a3,3,0,1,0-3-3,3,3,0,0,0,3,3H36c0-3.87,2.24-8,5-8S46,28.34,46,30Z" style="fill:#51645e"/><path d="M28,34H24a3,3,0,1,0-3-3,3,3,0,0,0,3,3H22a4,4,0,0,1-4-4c0-1.66,2.24-4,5-4S28,30.13,28,34Z" style="fill:#51645e"/><path d="M53,4.83v5.68a5.993,5.993,0,0,1-1.76,4.25L50,16l.69.69a3,3,0,0,1,.72,3.07l-.19.57a2.908,2.908,0,0,1-.72,1.17L49,23l-.06.05A19.74,19.74,0,0,0,46,20l-4-3S47.8,2.51,49.89,2.01h.02A2.26,2.26,0,0,1,50.17,2,2.834,2.834,0,0,1,53,4.83Z" style="fill:#52525b"/><path d="M22,17l-4,3a19.74,19.74,0,0,0-2.94,3.05L15,23l-1.5-1.5a2.908,2.908,0,0,1-.72-1.17l-.19-.57a3,3,0,0,1,.72-3.07L14,16l-1.24-1.24A5.993,5.993,0,0,1,11,10.51V4.83A2.834,2.834,0,0,1,13.83,2a2.26,2.26,0,0,1,.26.01h.02C16.2,2.51,22,17,22,17Z" style="fill:#52525b"/><path d="M51,51.1V57a5.992,5.992,0,0,1-1.2,3.6L48,63H16l-1.8-2.4A5.992,5.992,0,0,1,13,57V51.1a5.976,5.976,0,0,1,1.31-3.74l2.54-3.18a12.352,12.352,0,0,0,8.28,3.79C25.76,50.27,28.59,52,32,52s6.24-1.73,6.87-4.03a12.352,12.352,0,0,0,8.28-3.79l2.54,3.18A5.976,5.976,0,0,1,51,51.1Z" style="fill:#52525b"/><path d="M47.15,44.18a12.352,12.352,0,0,1-8.28,3.79,2.558,2.558,0,0,0,.05-.27C41.54,47.17,44,45.81,44,43a3.552,3.552,0,0,0-2-3c3,0,5.81-2.3,7.43-4.05A5.989,5.989,0,0,0,51,31.89v2.52A14.149,14.149,0,0,1,47.15,44.18Z" style="fill:#6c6c78"/><path d="M16.85,44.18A14.149,14.149,0,0,1,13,34.41V31.89a5.989,5.989,0,0,0,1.57,4.06C16.19,37.7,19,40,22,40a3.552,3.552,0,0,0-2,3c0,2.81,2.46,4.17,5.08,4.7a2.558,2.558,0,0,0,.05.27A12.352,12.352,0,0,1,16.85,44.18Z" style="fill:#6c6c78"/><path d="M28,34c0-3.87-2.24-8-5-8s-5,2.34-5,4a4,4,0,0,0,4,4h6Zm8,3-3-1H31l-3,1-6,3c-3,0-5.81-2.3-7.43-4.05A5.989,5.989,0,0,1,13,31.89V28a8.639,8.639,0,0,1,2.06-4.95A19.74,19.74,0,0,1,18,20l4-3S16.2,2.51,14.11,2.01a2.871,2.871,0,0,1,1.72.82L25.81,13.7A4,4,0,0,0,28.76,15h6.48a4,4,0,0,0,2.95-1.3L48.17,2.83a2.871,2.871,0,0,1,1.72-.82C47.8,2.51,42,17,42,17l4,3a19.74,19.74,0,0,1,2.94,3.05A8.639,8.639,0,0,1,51,28v3.89a5.989,5.989,0,0,1-1.57,4.06C47.81,37.7,45,40,42,40Zm0-3h6a4,4,0,0,0,4-4c0-1.66-2.24-4-5-4S36,30.13,36,34Z" style="fill:#81818f"/><path d="M38.92,47.7A13.663,13.663,0,0,1,36,48c-3,0-4-1-4-1V45a1.5,1.5,0,0,0,1.06-.45L35,43l-.03-.19-.69-4.83A2.3,2.3,0,0,0,32,36h1l3,1,6,3a3.552,3.552,0,0,1,2,3C44,45.81,41.54,47.17,38.92,47.7Z" style="fill:#9696a6"/><path d="M38.87,47.97C38.24,50.27,35.41,52,32,52s-6.24-1.73-6.87-4.03a2.558,2.558,0,0,1-.05-.27A13.663,13.663,0,0,0,28,48c3,0,4-1,4-1s1,1,4,1a13.663,13.663,0,0,0,2.92-.3A2.558,2.558,0,0,1,38.87,47.97Z" style="fill:#6c6c78"/><path d="M25.08,47.7C22.46,47.17,20,45.81,20,43a3.552,3.552,0,0,1,2-3l6-3,3-1h1a2.3,2.3,0,0,0-2.28,1.98l-.69,4.83L29,43l1.94,1.55A1.5,1.5,0,0,0,32,45v2s-1,1-4,1A13.663,13.663,0,0,1,25.08,47.7Z" style="fill:#9696a6"/><path d="M48.94,23.05A19.74,19.74,0,0,0,46,20l-4-3c-6,5-6,17-6,17,0-3.87,2.24-8,5-8s5,2.34,5,4a4,4,0,0,1-4,4H36v3l6,3c3,0,5.81-2.3,7.43-4.05A5.989,5.989,0,0,0,51,31.89V28A8.639,8.639,0,0,0,48.94,23.05Z" style="fill:#737380"/><path d="M24,34H22a4,4,0,0,1-4-4c0-1.66,2.24-4,5-4s5,4.13,5,8c0,0,0-12-6-17l-4,3a19.74,19.74,0,0,0-2.94,3.05A8.639,8.639,0,0,0,13,28v3.89a5.989,5.989,0,0,0,1.57,4.06C16.19,37.7,19,40,22,40l6-3V34Z" style="fill:#737380"/><path d="M47.2,13.093a85.683,85.683,0,0,1,5-10.236V2.851a2.826,2.826,0,0,0-2.03-.861,2.26,2.26,0,0,0-.26.01h-.02C47.8,2.5,42,16.99,42,16.99l4,3a19.74,19.74,0,0,1,2.94,3.05l.06-.05,1.5-1.5a2.908,2.908,0,0,0,.72-1.17l.054-.163C50.547,19.432,50,18.99,50,18.99l-1.513-1.135A3.994,3.994,0,0,1,47.2,13.093Z" style="fill:#404047"/><path d="M14.11,2h-.02a2.26,2.26,0,0,0-.26-.01,2.818,2.818,0,0,0-2.031.868,85.594,85.594,0,0,1,5,10.235,3.994,3.994,0,0,1-1.283,4.762L14,18.99s-.547.442-1.274,1.167l.054.163a2.908,2.908,0,0,0,.72,1.17l1.5,1.5.06.05A19.74,19.74,0,0,1,18,19.99l4-3S16.2,2.5,14.11,2Z" style="fill:#404047"/><path d="M38.87,47.97C38.24,50.27,35.41,52,32,52s-6.24-1.73-6.87-4.03a12.352,12.352,0,0,1-8.28-3.79l-1.587,1.986A13.2,13.2,0,0,0,16.85,48.18a12.352,12.352,0,0,0,8.28,3.79C25.76,54.27,28.59,56,32,56s6.24-1.73,6.87-4.03a12.352,12.352,0,0,0,8.28-3.79,13.2,13.2,0,0,0,1.587-2.014L47.15,44.18A12.352,12.352,0,0,1,38.87,47.97Z" style="fill:#404047"/><path d="M32,45v2s1,1,4,1a13.663,13.663,0,0,0,2.92-.3C41.54,47.17,44,45.81,44,43a3.448,3.448,0,0,0-.268-1.162C42.577,43.646,37.769,45,32,45Z" style="fill:#8a8a99"/><path d="M21.1,40.644A3.621,3.621,0,0,0,20,43c0,2.81,2.46,4.17,5.08,4.7A13.663,13.663,0,0,0,28,48c3,0,4-1,4-1V45C26.4,45,21.8,43.1,21.1,40.644Z" style="fill:#8a8a99"/><path d="M47.814,40.461A1,1,0,0,1,46,39.88V38.76A7.983,7.983,0,0,1,42,40a3.552,3.552,0,0,1,2,3c0,2.81-2.46,4.17-5.08,4.7a2.558,2.558,0,0,1-.05.27,12.352,12.352,0,0,0,8.28-3.79A14.149,14.149,0,0,0,51,34.41V32.154a12,12,0,0,1-2.235,6.975Z" style="fill:#63636e"/><path d="M20,43a3.552,3.552,0,0,1,2-3,7.983,7.983,0,0,1-4-1.24v1.12a1,1,0,0,1-1.814.581l-.951-1.332A12,12,0,0,1,13,32.154V34.41a14.149,14.149,0,0,0,3.85,9.77,12.352,12.352,0,0,0,8.28,3.79,2.558,2.558,0,0,1-.05-.27C22.46,47.17,20,45.81,20,43Z" style="fill:#63636e"/><path d="M30,17h4a3,3,0,0,0,2.937-2.388,3.983,3.983,0,0,1-1.7.388H28.76a3.983,3.983,0,0,1-1.7-.388A3,3,0,0,0,30,17Z" style="fill:#9696a6"/><circle cx="37.5" cy="39.5" r="0.5" style="fill:#3e3e45"/><circle cx="37.5" cy="43.5" r="0.5" style="fill:#3e3e45"/><circle cx="37.5" cy="41.5" r="0.5" style="fill:#3e3e45"/><circle cx="26.5" cy="43.5" r="0.5" style="fill:#3e3e45"/><circle cx="26.5" cy="41.5" r="0.5" style="fill:#3e3e45"/><circle cx="26.5" cy="39.5" r="0.5" style="fill:#3e3e45"/><path d="M41,25c-3.536,0-6,4.743-6,9a1,1,0,0,0,1,1h6a5.006,5.006,0,0,0,5-5C47,27.749,44.231,25,41,25Zm-1,8a2,2,0,1,1,2-2A2,2,0,0,1,40,33Zm3.717-.547a3.96,3.96,0,0,0-3.147-5.4A1.861,1.861,0,0,1,41,27c2.311,0,4,1.973,4,3A2.993,2.993,0,0,1,43.717,32.453Z"/><path d="M23,25c-3.231,0-6,2.749-6,5a5.006,5.006,0,0,0,5,5h6a1,1,0,0,0,1-1C29,29.743,26.536,25,23,25Zm-1,6a2,2,0,1,1,2,2A2,2,0,0,1,22,31Zm-3-1c0-1.027,1.689-3,4-3a1.861,1.861,0,0,1,.43.058,3.96,3.96,0,0,0-3.147,5.4A2.993,2.993,0,0,1,19,30Z"/><path d="M54,10.515V4.828A3.833,3.833,0,0,0,50.172,1c-.058,0-.114.014-.172.017V1a1.236,1.236,0,0,0-.413.057,3.842,3.842,0,0,0-2.151,1.1L37.451,13.029A3,3,0,0,1,35.242,14H28.758a3.007,3.007,0,0,1-2.21-.971L16.535,2.121a3.789,3.789,0,0,0-2.124-1.064A1.249,1.249,0,0,0,14,1v.017c-.058,0-.114-.017-.172-.017A3.833,3.833,0,0,0,10,4.828v5.687a6.955,6.955,0,0,0,2.051,4.95l.535.535a3.977,3.977,0,0,0-.948,4.076l.189.568a3.991,3.991,0,0,0,.967,1.564l.957.957A8.9,8.9,0,0,0,12,28v6.405A15.352,15.352,0,0,0,12.728,39H11v2h2.5a14.658,14.658,0,0,0,2.94,4.145A19.189,19.189,0,0,0,11.2,49.4l1.6,1.2a18.527,18.527,0,0,1,5.254-4.1,13.283,13.283,0,0,0,1.488.918,27.942,27.942,0,0,0-5.374,5.024l1.664,1.11c.869-1.3,3.365-3.375,5.823-5.231a13.648,13.648,0,0,0,2.771.592C25.5,51.287,28.483,53,32,53s6.505-1.713,7.574-4.084a13.648,13.648,0,0,0,2.771-.592c2.458,1.856,4.954,3.927,5.823,5.231l1.664-1.11a27.942,27.942,0,0,0-5.374-5.024,13.283,13.283,0,0,0,1.488-.918A18.527,18.527,0,0,1,51.2,50.6l1.6-1.2a19.189,19.189,0,0,0-5.238-4.255A14.658,14.658,0,0,0,50.5,41H53V39H51.272A15.352,15.352,0,0,0,52,34.405V28a8.9,8.9,0,0,0-1.751-4.835l.957-.957a3.985,3.985,0,0,0,.966-1.562l.19-.571A3.975,3.975,0,0,0,51.414,16l.535-.535A6.955,6.955,0,0,0,54,10.515ZM14.291,37.1A17.512,17.512,0,0,0,16.544,39H14.825A13.47,13.47,0,0,1,14.291,37.1ZM15.758,41h3.805A4.59,4.59,0,0,0,19,43a5.612,5.612,0,0,0,.047.673c-.26.137-.524.281-.788.425A12.332,12.332,0,0,1,15.758,41ZM32,51a6.983,6.983,0,0,1-5.206-2.049C27.2,48.981,27.6,49,28,49a8.466,8.466,0,0,0,4-.8,8.466,8.466,0,0,0,4,.8c.4,0,.8-.019,1.206-.049A6.983,6.983,0,0,1,32,51Zm0-9a2.615,2.615,0,0,1,1.781.692l-1.344,1.073a.856.856,0,0,0-.094.086.479.479,0,0,1-.686,0,.856.856,0,0,0-.094-.086L30.222,42.7A2.592,2.592,0,0,1,32,42Zm-1.6-1.7.311-2.178a1.306,1.306,0,0,1,2.586,0L33.6,40.3a4.438,4.438,0,0,0-3.208,0Zm15.345,3.8c-.264-.144-.528-.288-.788-.425A5.612,5.612,0,0,0,45,43a4.59,4.59,0,0,0-.563-2h3.805A12.332,12.332,0,0,1,45.741,44.1ZM47.456,39A17.512,17.512,0,0,0,49.709,37.1,13.47,13.47,0,0,1,49.175,39Zm3.079-24.949-1.242,1.242a1,1,0,0,0,0,1.414l.688.689a1.989,1.989,0,0,1,.485,2.045l-.192.572a1.99,1.99,0,0,1-.482.781l-.774.774c-.47-.543-.93-1.015-1.325-1.394l-1.386,1.441C47.417,22.683,50,25.441,50,28v3.894a4.96,4.96,0,0,1-1.308,3.374C47.656,36.39,44.931,39,42,39H39v2h2.722a2.559,2.559,0,0,1,1.228,1.666c-1.948-.937-3.423-1.532-3.579-1.595l-.742,1.858c.04.016,1.721.7,3.869,1.746a3.394,3.394,0,0,1-.7.756c-1.742-1.26-3.1-2.169-3.242-2.263l-1.11,1.664c.582.388,1.407.955,2.342,1.62A13.941,13.941,0,0,1,36,47a6.872,6.872,0,0,1-3-.536v-.682a2.475,2.475,0,0,0,.728-.488l1.9-1.512A1,1,0,0,0,36,43c0-.047-.018-.093-.021-.14l.011,0-.717-5.021a3.306,3.306,0,0,0-6.546,0l-.717,5.02.011,0c0,.047-.021.093-.021.14a1,1,0,0,0,.376.782l1.9,1.512a2.475,2.475,0,0,0,.728.488v.678A6.805,6.805,0,0,1,28,47a13.941,13.941,0,0,1-3.787-.548c.935-.665,1.76-1.232,2.342-1.62l-1.11-1.664c-.142.094-1.5,1-3.242,2.263a3.394,3.394,0,0,1-.7-.756c2.148-1.049,3.829-1.73,3.869-1.746l-.742-1.858c-.156.063-1.632.658-3.582,1.6A2.535,2.535,0,0,1,22.278,41H25V39H22c-2.931,0-5.656-2.61-6.692-3.732A4.96,4.96,0,0,1,14,31.894V28c0-2.559,2.583-5.317,3.693-6.385l-1.386-1.441c-.395.379-.855.851-1.325,1.394l-.774-.774a2,2,0,0,1-.483-.783l-.191-.569a1.99,1.99,0,0,1,.485-2.046l.688-.689a1,1,0,0,0,0-1.414l-1.242-1.242A4.971,4.971,0,0,1,12,10.515V4.828A1.83,1.83,0,0,1,13.828,3l.033,0c1.173.759,4.414,7.482,6.924,13.658L18.4,18.45l1.2,1.6,3-2.25a1,1,0,0,0,.329-1.171c-1.488-3.719-2.733-6.544-3.78-8.7l5.925,6.456A5.012,5.012,0,0,0,28.758,16h6.484a5.008,5.008,0,0,0,3.683-1.619l5.927-6.458c-1.047,2.16-2.293,4.986-3.781,8.706A1,1,0,0,0,41.4,17.8l3,2.251,1.2-1.6-2.386-1.79c2.51-6.176,5.75-12.9,6.924-13.658l.033,0A1.83,1.83,0,0,1,52,4.828v5.687A4.971,4.971,0,0,1,50.535,14.051Z"/><path d="M50,57a5.028,5.028,0,0,1-1,3l-1.5,2h-31L15,60a5.023,5.023,0,0,1-1-3V53H12v4a7.033,7.033,0,0,0,1.4,4.2l1.8,2.4a1,1,0,0,0,.8.4H48a1,1,0,0,0,.8-.4l1.8-2.4A7.038,7.038,0,0,0,52,57V52H50Z"/></g></svg>